<svg xmlns="http://www.w3.org/2000/svg" width="10000" height="5000" version="1.1">
<rect x="0" y="0" width="10000" height="5000" fill="none" stroke="black" stroke-width="30" />
<text x="9990" y="200" font-size="120" text-anchor="end">100</text>
<text x="10" y="4990" font-size="120">50</text>
<line x1="0" y1="500" x2="10000" y2="500" stroke="gray" stroke-width="10" />
<text x="5" y="495" font-size="120" fill="gray">5</text>
<line x1="1000" y1="0" x2="1000" y2="5000" stroke="gray" stroke-width="10" />
<text x="995" y="200" font-size="120" fill="gray" text-anchor="end">10</text>
<line x1="0" y1="1000" x2="10000" y2="1000" stroke="gray" stroke-width="10" />
<text x="5" y="995" font-size="120" fill="gray">10</text>
<line x1="2000" y1="0" x2="2000" y2="5000" stroke="gray" stroke-width="10" />
<text x="1995" y="200" font-size="120" fill="gray" text-anchor="end">20</text>
<line x1="0" y1="1500" x2="10000" y2="1500" stroke="gray" stroke-width="10" />
<text x="5" y="1495" font-size="120" fill="gray">15</text>
<line x1="3000" y1="0" x2="3000" y2="5000" stroke="gray" stroke-width="10" />
<text x="2995" y="200" font-size="120" fill="gray" text-anchor="end">30</text>
<line x1="0" y1="2000" x2="10000" y2="2000" stroke="gray" stroke-width="10" />
<text x="5" y="1995" font-size="120" fill="gray">20</text>
<line x1="4000" y1="0" x2="4000" y2="5000" stroke="gray" stroke-width="10" />
<text x="3995" y="200" font-size="120" fill="gray" text-anchor="end">40</text>
<line x1="0" y1="2500" x2="10000" y2="2500" stroke="gray" stroke-width="10" />
<text x="5" y="2495" font-size="120" fill="gray">25</text>
<line x1="5000" y1="0" x2="5000" y2="5000" stroke="gray" stroke-width="10" />
<text x="4995" y="200" font-size="120" fill="gray" text-anchor="end">50</text>
<line x1="0" y1="3000" x2="10000" y2="3000" stroke="gray" stroke-width="10" />
<text x="5" y="2995" font-size="120" fill="gray">30</text>
<line x1="6000" y1="0" x2="6000" y2="5000" stroke="gray" stroke-width="10" />
<text x="5995" y="200" font-size="120" fill="gray" text-anchor="end">60</text>
<line x1="0" y1="3500" x2="10000" y2="3500" stroke="gray" stroke-width="10" />
<text x="5" y="3495" font-size="120" fill="gray">35</text>
<line x1="7000" y1="0" x2="7000" y2="5000" stroke="gray" stroke-width="10" />
<text x="6995" y="200" font-size="120" fill="gray" text-anchor="end">70</text>
<line x1="0" y1="4000" x2="10000" y2="4000" stroke="gray" stroke-width="10" />
<text x="5" y="3995" font-size="120" fill="gray">40</text>
<line x1="8000" y1="0" x2="8000" y2="5000" stroke="gray" stroke-width="10" />
<text x="7995" y="200" font-size="120" fill="gray" text-anchor="end">80</text>
<line x1="0" y1="4500" x2="10000" y2="4500" stroke="gray" stroke-width="10" />
<text x="5" y="4495" font-size="120" fill="gray">45</text>
<line x1="9000" y1="0" x2="9000" y2="5000" stroke="gray" stroke-width="10" />
<text x="8995" y="200" font-size="120" fill="gray" text-anchor="end">90</text>
<rect x="900" y="900" width="3200" height="700" rx="100" ry="100" fill="rgba(192,192,192,0.6)" />
<rect x="1000" y="1000" width="3000" height="500" fill="rgb(255,255,255)" />
<text x="2500" y="1250" fill="rgb(0,0,0)" text-anchor="middle" alignment-baseline="middle">CNC machines</text>
<rect x="4900" y="900" width="4200" height="700" rx="100" ry="100" fill="rgba(192,192,192,0.6)" />
<rect x="5000" y="1000" width="4000" height="500" fill="rgb(0,128,128)" />
<text x="7000" y="1250" fill="rgb(255,255,255)" text-anchor="middle" alignment-baseline="middle">3D printers</text>
<rect x="900" y="2400" width="700" height="2200" rx="100" ry="100" fill="rgba(192,192,192,0.6)" />
<rect x="1000" y="2500" width="500" height="2000" fill="rgb(255,0,0)" />
<text x="1250" y="3500" fill="rgb(255,255,255)" text-anchor="middle" alignment-baseline="middle" transform="rotate(270 1250,3500)">Casting</text>
<rect x="2900" y="2400" width="700" height="2200" rx="100" ry="100" fill="rgba(192,192,192,0.6)" />
<rect x="3000" y="2500" width="500" height="2000" fill="rgb(0,0,255)" />
<text x="3250" y="3500" fill="rgb(255,255,255)" text-anchor="middle" alignment-baseline="middle" transform="rotate(270 3250,3500)">obstacle</text>
<rect x="3900" y="2400" width="700" height="2200" rx="100" ry="100" fill="rgba(192,192,192,0.6)" />
<rect x="4000" y="2500" width="500" height="2000" fill="rgb(0,0,255)" />
<text x="4250" y="3500" fill="rgb(255,255,255)" text-anchor="middle" alignment-baseline="middle" transform="rotate(270 4250,3500)">obstacle</text>
<rect x="4900" y="2400" width="700" height="2200" rx="100" ry="100" fill="rgba(192,192,192,0.6)" />
<rect x="5000" y="2500" width="500" height="2000" fill="rgb(0,0,255)" />
<text x="5250" y="3500" fill="rgb(255,255,255)" text-anchor="middle" alignment-baseline="middle" transform="rotate(270 5250,3500)">obstacle</text>
<circle cx="7500" cy="3500" r="1300" fill="rgba(192,192,192,0.6)" />
<circle cx="7500" cy="3500" r="1200" fill="rgb(128,0,0)" />
<text x="7500" y="3500" fill="rgb(255,255,255)" text-anchor="middle" alignment-baseline="middle">Nuclear Reactor</text>
<rect x="4.44089e-14" y="150" width="200" height="100" fill="rgb(255,165,0)" transform="rotate(90 100 200)" />
<rect x="150" y="-100" width="100" height="300" fill="rgb(255,165,0)" transform="rotate(90 200 50)" />
<rect x="200" y="150" width="200" height="100" fill="rgb(255,165,0)" transform="rotate(90 300 200)" />
<rect x="300" y="150" width="200" height="100" fill="rgb(255,165,0)" transform="rotate(90 400 200)" />
<rect x="450" y="-100" width="100" height="300" fill="rgb(255,165,0)" transform="rotate(90 500 50)" />
<rect x="500" y="150" width="200" height="100" fill="rgb(255,165,0)" transform="rotate(90 600 200)" />
<rect x="1829.29" y="2179.29" width="200" height="100" fill="rgb(255,165,0)" transform="rotate(135 1929.29 2229.29)" />
<rect x="2056.07" y="2043.93" width="100" height="300" fill="rgb(255,165,0)" transform="rotate(135 2106.07 2193.93)" />
<rect x="1970.71" y="2320.71" width="200" height="100" fill="rgb(255,165,0)" transform="rotate(135 2070.71 2370.71)" />
</svg>
